<svg xmlns="http://www.w3.org/2000/svg" viewBox="0 0 64 64" role="img" aria-label="TopSOUL Games favicon">
  <defs>
    <linearGradient id="bg" x1="0" y1="0" x2="1" y2="1">
      <stop offset="0%" stop-color="#101111"/>
      <stop offset="100%" stop-color="#07080a"/>
    </linearGradient>
    <linearGradient id="accent" x1="0" y1="0" x2="1" y2="1">
      <stop offset="0%" stop-color="#ff7b7b"/>
      <stop offset="100%" stop-color="#ff6363"/>
    </linearGradient>
  </defs>
  <rect x="4" y="4" width="56" height="56" rx="14" fill="url(#bg)" stroke="rgba(255,255,255,0.12)"/>
  <g fill="url(#accent)">
    <rect x="18" y="28" width="10" height="8" rx="4"/>
    <rect x="36" y="28" width="10" height="8" rx="4"/>
    <rect x="28" y="20" width="8" height="24" rx="4"/>
    <rect x="22" y="26" width="20" height="12" rx="6" opacity="0.9"/>
  </g>
  <g stroke="#f9f9f9" stroke-width="3" stroke-linecap="round">
    <path d="M16 24c0-4 3-7 7-7h18c4 0 7 3 7 7v16c0 4-3 7-7 7H23c-4 0-7-3-7-7Z" fill="none"/>
    <path d="M24 17l-4-6"/>
    <path d="M40 17l4-6"/>
    <path d="M22 32h8"/>
    <path d="M26 28v8"/>
    <circle cx="40" cy="30" r="2.5" fill="#f9f9f9" stroke="none"/>
    <circle cx="44" cy="34" r="2.5" fill="#f9f9f9" stroke="none"/>
  </g>
</svg>
